<?xml version="1.0" encoding="iso-8859-1"?>
<!-- Uploaded to: SVG Repo, www.svgrepo.com, Generator: SVG Repo Mixer Tools -->
<svg height="800px" width="800px" version="1.1" id="Layer_1" xmlns="http://www.w3.org/2000/svg" xmlns:xlink="http://www.w3.org/1999/xlink" 
	 viewBox="0 0 511.999 511.999" xml:space="preserve">
<g>
	<path style="fill:#E6AF78;" d="M151.604,444.653c-2.714-0.775-11.197-3.851-11.209-10.666l-0.063-19.995l-66.592,0.145
		l0.012,19.996c0.011,6.008-6.565,9.131-9.981,10.326l43.372,26.554L151.604,444.653z"/>
	<path style="fill:#E6AF78;" d="M140.394,433.987l-0.053-16.74c-8.745,17.001-26.45,28.639-46.886,28.639
		c-8.209,0-15.979-1.878-22.907-5.226c-2.156,1.931-4.928,3.15-6.778,3.798l43.372,26.554l44.461-26.358
		C148.89,443.877,140.407,440.802,140.394,433.987z"/>
</g>
<path style="fill:#D29B6E;" d="M140.342,417.247l-0.01-3.255l-66.592,0.145l0.012,19.996c0.005,2.753-1.379,4.894-3.203,6.528
	c6.927,3.347,14.697,5.226,22.907,5.226C113.891,445.885,131.597,434.248,140.342,417.247z"/>
<path style="fill:#785550;" d="M156.56,289.028c-25.195,3.647-58.268-20.043-82.893,0.155
	c-14.912,0.028-24.392,11.921-24.362,27.773c0.028,14.94,8.277,44.592,8.277,44.592l0.016,8.006
	c-0.028-14.542,8.517-39.017,8.517-39.017c42.748-0.081,77.946,12.139,90.557,17.14l-0.001-0.775l0.001,0.775
	c0.914,0.363,1.703,0.685,2.374,0.964C165.792,319.751,159.579,295.856,156.56,289.028z"/>
<path style="fill:#F0C087;" d="M57.596,369.555c0.058,30.953,21.879,59.825,49.56,59.773c27.68-0.053,49.617-27.438,49.559-58.392
	l-0.043-23.259c-12.611-5.002-47.81-17.222-90.557-17.14C66.113,330.537,57.568,355.013,57.596,369.555z"/>
<path style="fill:#E6AF78;" d="M75.464,376.726c-0.843-40.195,5.838-38.173,5.838-38.173c12.133-2.8,30.121-2.085,49.777,0.752
	c-16.906-4.535-39.607-8.815-64.968-8.768c0,0-8.544,24.475-8.517,39.017c0.054,28.725,18.856,55.643,43.685,59.329
	C90.526,420.388,75.973,400.923,75.464,376.726z"/>
<path style="fill:#EFF2FA;" d="M206.438,485.489c-0.026-13.871-8.798-28.663-23.894-32.861l-30.937-7.973
	c-0.001,0-0.003-0.001-0.004-0.001l-44.461,26.358l-43.372-26.554c-0.462,0.161-0.87,0.29-1.193,0.383l-30.907,8.089
	c-15.08,4.256-23.795,19.08-23.77,32.951l0.017,8.929c0.009,5.223,4.853,9.449,10.818,9.438l176.934-0.352
	c5.965-0.011,10.792-4.255,10.783-9.478L206.438,485.489z"/>
<g>
	<path style="fill:#E4EAF6;" d="M44.045,503.759v-9.953c0-5.098-2.311-9.956-6.357-13.364l-21.221-17.701
		c-5.561,6.477-8.58,14.973-8.564,23.14l0.017,8.929c0.006,3.534,2.23,6.607,5.514,8.224c1.378,0.459,2.705,0.725,3.785,0.725
		h26.828V503.759z"/>
	<path style="fill:#E4EAF6;" d="M206.455,494.419l-0.017-8.929c-0.013-7.127-2.341-14.493-6.643-20.544l-19.084,15.499
		c-4.046,3.407-6.357,8.266-6.357,13.364v9.953h23.054C202.544,503.021,206.464,499.123,206.455,494.419z"/>
</g>
<path style="fill:#694B4B;" d="M156.56,289.028c-10.939,1.583-23.365-1.986-35.938-4.88c-16.385-3.771-33.022-6.394-46.956,5.035
	c-0.119,0-0.234,0.007-0.351,0.009c-1.726,1.782,1.539,6.84,1.539,6.84s-6.545,3.1-9.301,15.502
	c-1.508,6.786-1.103,14.06,1.019,19.004c19.405,0.003,37.233,2.532,52.083,5.756c17.705,3.843,31.182,8.671,38.015,11.382
	c0.914,0.363,1.703,0.685,2.374,0.964C165.792,319.751,159.579,295.856,156.56,289.028z"/>
<g>
	<path style="fill:#E6AF78;" d="M299.965,171.48c-2.714-0.775-11.197-3.851-11.209-10.666l-0.063-19.995l-66.592,0.145l0.012,19.996
		c0.011,6.008-6.565,9.131-9.981,10.326l43.372,26.554L299.965,171.48z"/>
	<path style="fill:#E6AF78;" d="M288.756,160.814l-0.053-16.74c-8.745,17.001-26.45,28.639-46.886,28.639
		c-8.209,0-15.979-1.878-22.907-5.226c-2.156,1.93-4.928,3.15-6.778,3.798l43.372,26.554l44.461-26.358
		C297.251,170.704,288.768,167.63,288.756,160.814z"/>
</g>
<path style="fill:#D29B6E;" d="M288.703,144.074l-0.01-3.255l-66.592,0.145l0.012,19.996c0.005,2.753-1.379,4.894-3.203,6.528
	c6.927,3.347,14.697,5.226,22.907,5.226C262.252,172.713,279.958,161.075,288.703,144.074z"/>
<path style="fill:#785550;" d="M304.921,15.855c-25.195,3.647-58.268-20.043-82.893,0.155
	c-14.912,0.028-24.392,11.921-24.362,27.773c0.028,14.94,8.277,44.592,8.277,44.592l0.016,8.006
	c-0.028-14.542,8.517-39.017,8.517-39.017c42.748-0.081,77.946,12.139,90.557,17.14l-0.001-0.775l0.001,0.775
	c0.914,0.363,1.703,0.685,2.374,0.964C314.153,46.578,307.941,22.683,304.921,15.855z"/>
<path style="fill:#F0C087;" d="M205.957,96.382c0.058,30.953,21.879,59.825,49.56,59.773c27.68-0.053,49.617-27.438,49.559-58.392
	l-0.043-23.259c-12.611-5.002-47.81-17.222-90.557-17.14C214.473,57.364,205.93,81.84,205.957,96.382z"/>
<path style="fill:#E6AF78;" d="M223.826,103.553c-0.843-40.195,5.838-38.173,5.838-38.173c12.133-2.8,30.121-2.084,49.777,0.752
	c-16.906-4.535-39.607-8.815-64.968-8.768c0,0-8.544,24.475-8.517,39.017c0.054,28.725,18.856,55.643,43.685,59.329
	C238.888,147.215,224.334,127.75,223.826,103.553z"/>
<path style="fill:#707487;" d="M354.799,212.317c-0.026-13.871-8.798-28.663-23.894-32.861l-30.937-7.973
	c-0.001,0-0.003-0.001-0.004-0.001l-44.461,26.358l-43.372-26.554c-0.462,0.161-0.87,0.29-1.193,0.383l-30.907,8.089
	c-15.08,4.256-23.795,19.08-23.77,32.951l0.017,8.929c0.009,5.223,4.853,9.449,10.818,9.438l176.934-0.352
	c5.965-0.011,10.792-4.255,10.783-9.478L354.799,212.317z"/>
<g>
	<path style="fill:#5B5D6E;" d="M192.406,230.587v-9.953c0-5.098-2.311-9.956-6.357-13.364l-21.221-17.701
		c-5.561,6.477-8.58,14.973-8.564,23.14l0.017,8.929c0.006,3.534,2.23,6.607,5.514,8.224c1.378,0.459,2.705,0.725,3.785,0.725
		h26.828V230.587z"/>
	<path style="fill:#5B5D6E;" d="M354.816,221.246l-0.017-8.929c-0.013-7.127-2.341-14.493-6.643-20.544l-19.084,15.499
		c-4.046,3.407-6.357,8.266-6.357,13.364v9.953h23.054C350.905,229.848,354.825,225.95,354.816,221.246z"/>
</g>
<path style="fill:#694B4B;" d="M304.921,15.855c-10.939,1.583-23.365-1.986-35.938-4.88c-16.385-3.771-33.022-6.394-46.956,5.035
	c-0.119,0-0.234,0.007-0.351,0.009c-1.726,1.782,1.539,6.84,1.539,6.84s-6.545,3.1-9.301,15.502
	c-1.508,6.786-1.103,14.06,1.019,19.004c19.405,0.003,37.233,2.532,52.083,5.756c17.705,3.843,31.182,8.671,38.015,11.382
	c0.914,0.363,1.703,0.685,2.374,0.964C314.153,46.578,307.941,22.683,304.921,15.855z"/>
<g>
	<path style="fill:#E6AF78;" d="M449.24,444.093c-2.714-0.775-11.197-3.851-11.209-10.666l-0.063-19.995l-66.592,0.145l0.012,19.996
		c0.011,6.008-6.565,9.131-9.981,10.326l43.372,26.554L449.24,444.093z"/>
	<path style="fill:#E6AF78;" d="M438.031,433.427l-0.053-16.74c-8.745,17.001-26.45,28.639-46.886,28.639
		c-8.209,0-15.979-1.878-22.907-5.226c-2.156,1.931-4.928,3.15-6.778,3.798l43.372,26.554l44.461-26.358
		C446.526,443.318,438.043,440.243,438.031,433.427z"/>
</g>
<path style="fill:#D29B6E;" d="M437.978,416.687l-0.01-3.255l-66.592,0.145l0.012,19.996c0.005,2.753-1.379,4.894-3.203,6.528
	c6.927,3.347,14.697,5.226,22.907,5.226C411.528,445.326,429.233,433.688,437.978,416.687z"/>
<path style="fill:#785550;" d="M454.196,288.469c-25.195,3.647-58.268-20.043-82.893,0.155
	c-14.912,0.028-24.392,11.921-24.362,27.773c0.028,14.94,8.277,44.592,8.277,44.592l0.016,8.006
	c-0.028-14.542,8.517-39.017,8.517-39.017c42.748-0.081,77.946,12.139,90.557,17.14l-0.001-0.775l0.001,0.775
	c0.914,0.363,1.703,0.685,2.374,0.964C463.428,319.191,457.216,295.296,454.196,288.469z"/>
<path style="fill:#F0C087;" d="M355.233,368.996c0.058,30.953,21.879,59.825,49.56,59.773c27.68-0.053,49.617-27.438,49.559-58.392
	l-0.044-23.259c-12.611-5.002-47.81-17.222-90.557-17.14C363.749,329.977,355.205,354.453,355.233,368.996z"/>
<path style="fill:#E6AF78;" d="M373.102,376.166c-0.843-40.196,5.838-38.173,5.838-38.173c12.133-2.8,30.121-2.084,49.777,0.752
	c-16.906-4.535-39.607-8.815-64.968-8.768c0,0-8.544,24.475-8.517,39.017c0.054,28.725,18.855,55.643,43.685,59.329
	C388.163,419.829,373.609,400.363,373.102,376.166z"/>
<path style="fill:#EFF2FA;" d="M504.074,484.929c-0.026-13.871-8.798-28.663-23.894-32.861l-30.937-7.973
	c-0.001,0-0.003-0.001-0.004-0.001l-44.461,26.358l-43.372-26.554c-0.462,0.161-0.87,0.29-1.193,0.383l-30.907,8.089
	c-15.08,4.256-23.795,19.08-23.77,32.951l0.017,8.929c0.009,5.223,4.853,9.449,10.818,9.438l176.934-0.352
	c5.965-0.011,10.792-4.255,10.783-9.478L504.074,484.929z"/>
<g>
	<path style="fill:#E4EAF6;" d="M341.681,503.2v-9.953c0-5.098-2.311-9.956-6.357-13.364l-21.221-17.701
		c-5.561,6.477-8.58,14.973-8.564,23.14l0.017,8.929c0.006,3.534,2.23,6.607,5.513,8.224c1.378,0.459,2.705,0.725,3.785,0.725
		h26.828V503.2z"/>
	<path style="fill:#E4EAF6;" d="M504.092,493.859l-0.017-8.929c-0.013-7.127-2.341-14.493-6.643-20.544l-19.084,15.499
		c-4.046,3.407-6.357,8.266-6.357,13.364v9.953h23.055C500.18,502.462,504.1,498.563,504.092,493.859z"/>
</g>
<path style="fill:#694B4B;" d="M454.196,288.469c-10.939,1.583-23.365-1.986-35.938-4.88c-16.385-3.771-33.022-6.394-46.956,5.035
	c-0.119,0-0.234,0.007-0.351,0.009c-1.726,1.782,1.539,6.84,1.539,6.84s-6.545,3.1-9.301,15.502
	c-1.508,6.786-1.103,14.06,1.019,19.004c19.405,0.003,37.233,2.532,52.083,5.756c17.705,3.843,31.182,8.671,38.015,11.382
	c0.914,0.363,1.703,0.685,2.374,0.964C463.428,319.191,457.216,295.296,454.196,288.469z"/>
<path d="M183.292,399.38c1.494,2.233,3.948,3.44,6.448,3.44c1.482,0,2.981-0.425,4.304-1.31l61.764-41.345l61.92,41.112
	c1.319,0.875,2.807,1.294,4.281,1.294c2.509,0,4.972-1.217,6.464-3.465c2.369-3.565,1.396-8.376-2.17-10.744l-62.768-41.675
	l-0.137-73.017c-0.008-4.276-3.477-7.736-7.751-7.736c-0.005,0-0.01,0-0.016,0c-4.281,0.008-7.745,3.485-7.737,7.766l0.137,73.016
	l-62.611,41.911C181.864,391.008,180.911,395.822,183.292,399.38z"/>
<path d="M154.361,234.161c3.45,3.009,7.964,4.666,12.715,4.666c0.012,0,0.026,0,0.038,0l88.266-0.176
	c0.062,0.001,0.122,0.009,0.185,0.009c0.005,0,0.01,0,0.016,0c0.065,0,0.128-0.008,0.193-0.01l88.274-0.176
	c4.764-0.008,9.287-1.682,12.734-4.714c3.685-3.239,5.794-7.807,5.784-12.53l-0.017-8.93c-0.03-15.955-10.196-34.926-29.567-40.314
	c-0.048-0.013-0.095-0.026-0.143-0.038l-30.829-7.945c-2.965-0.866-5.274-2.487-5.505-3.213l-0.053-17.053
	c0.065-0.078,0.134-0.15,0.198-0.227c10.462-12.552,16.206-28.804,16.174-45.761l-0.024-12.554
	c10.463-34.232,3.017-63.861-0.793-72.474c-0.012-0.027-0.027-0.052-0.039-0.079c-0.069-0.152-0.146-0.299-0.224-0.445
	c-0.045-0.084-0.088-0.169-0.135-0.251c-0.075-0.13-0.159-0.254-0.242-0.379c-0.061-0.092-0.121-0.186-0.185-0.275
	c-0.074-0.102-0.155-0.198-0.235-0.297c-0.082-0.102-0.162-0.205-0.249-0.302c-0.072-0.081-0.149-0.155-0.224-0.233
	c-0.1-0.103-0.199-0.208-0.305-0.305c-0.076-0.07-0.158-0.134-0.237-0.202c-0.11-0.093-0.218-0.188-0.333-0.275
	c-0.094-0.071-0.193-0.135-0.29-0.203c-0.104-0.071-0.207-0.146-0.314-0.212c-0.124-0.078-0.254-0.146-0.382-0.215
	c-0.086-0.045-0.169-0.096-0.256-0.14c-0.154-0.076-0.312-0.143-0.47-0.208c-0.068-0.028-0.134-0.061-0.203-0.087
	c-0.168-0.065-0.342-0.119-0.516-0.172c-0.064-0.02-0.127-0.042-0.191-0.06c-0.164-0.045-0.332-0.081-0.5-0.115
	c-0.081-0.017-0.16-0.037-0.241-0.051c-0.145-0.025-0.29-0.04-0.437-0.057c-0.111-0.012-0.221-0.028-0.333-0.036
	c-0.118-0.008-0.236-0.009-0.354-0.011c-0.145-0.004-0.288-0.007-0.433-0.003c-0.094,0.003-0.189,0.012-0.283,0.019
	c-0.168,0.011-0.336,0.025-0.504,0.048c-0.027,0.003-0.054,0.004-0.082,0.007c-8.065,1.169-17.832-1.152-28.176-3.608
	c-18.137-4.306-38.6-9.154-56.4,3.811c-8.273,0.687-15.614,4.365-20.887,10.544c-5.456,6.395-8.451,15.225-8.432,24.866l0,0l0,0l0,0
	l0,0c0.027,14.358,6.778,40.085,8.278,45.625l0.013,6.973c0.031,16.767,5.912,33.664,16.135,46.359
	c0.003,0.004,0.006,0.008,0.01,0.012l0.012,18.219c-0.23,0.706-2.533,2.335-5.494,3.21l-30.799,8.061
	c-0.048,0.012-0.095,0.026-0.143,0.039c-19.351,5.461-29.445,24.47-29.415,40.426l0.018,8.929
	C148.539,226.376,150.663,230.935,154.361,234.161z M280.992,156.899l0.012,3.93c0.008,4.19,1.606,7.673,4.058,10.478
	l-29.543,17.511l-29.482-17.613c2.329-2.773,3.834-6.179,3.826-10.251l-0.003-4.395c7.865,4.798,16.562,7.348,25.579,7.348
	c0.029,0,0.061,0,0.09,0C264.516,163.89,273.172,161.459,280.992,156.899z M347.048,212.331l0.017,8.93
	c0,0.364-0.362,0.72-0.517,0.857c-0.616,0.542-1.538,0.854-2.531,0.856l-80.715,0.16l-0.039-20.884l37.889-22.458l27.743,7.151
	C340.788,190.286,347.029,202.236,347.048,212.331z M210.14,28.995c2.955-3.463,6.958-5.223,11.902-5.232
	c0.065,0,0.128-0.008,0.192-0.01c0.187-0.005,0.375-0.011,0.562-0.029c0.104-0.01,0.207-0.03,0.31-0.043
	c0.148-0.021,0.296-0.039,0.442-0.068c0.119-0.024,0.234-0.056,0.349-0.085c0.129-0.032,0.258-0.061,0.385-0.1
	c0.123-0.037,0.242-0.084,0.362-0.127c0.118-0.042,0.236-0.082,0.351-0.129c0.126-0.053,0.247-0.113,0.369-0.173
	c0.105-0.051,0.212-0.097,0.315-0.152c0.135-0.072,0.264-0.154,0.395-0.235c0.086-0.053,0.174-0.101,0.258-0.157
	c0.162-0.109,0.317-0.227,0.47-0.347c0.045-0.035,0.093-0.065,0.138-0.102c12.345-10.125,28.259-6.346,45.11-2.346
	c9.005,2.138,18.253,4.334,27.199,4.334c0.096,0,0.191-0.004,0.287-0.004c2.245,8.046,4.533,22.669,2.103,40.106
	c-13.013-4.77-44.656-14.482-86.671-14.482c-0.171,0-0.341,0-0.512,0c-0.02,0-0.038,0.002-0.057,0.003
	c-0.178,0.001-0.354,0.013-0.53,0.028c-0.086,0.006-0.173,0.009-0.257,0.019c-0.145,0.017-0.287,0.042-0.431,0.066
	c-0.115,0.02-0.23,0.035-0.343,0.059c-0.097,0.021-0.191,0.05-0.286,0.074c-0.153,0.039-0.307,0.076-0.456,0.124
	c-0.051,0.017-0.098,0.037-0.148,0.055c-0.188,0.065-0.375,0.131-0.556,0.211c-0.029,0.012-0.057,0.028-0.085,0.041
	c-0.197,0.088-0.392,0.181-0.58,0.285c-0.057,0.031-0.111,0.069-0.166,0.102c-0.155,0.09-0.31,0.181-0.457,0.282
	c-0.123,0.084-0.24,0.178-0.359,0.269c-0.075,0.058-0.154,0.111-0.226,0.172c-0.151,0.125-0.294,0.26-0.435,0.397
	c-0.036,0.035-0.075,0.066-0.11,0.102c-0.131,0.131-0.254,0.273-0.376,0.415c-0.041,0.049-0.087,0.093-0.127,0.143
	c-0.096,0.118-0.183,0.242-0.273,0.366c-0.061,0.085-0.125,0.165-0.183,0.252c-0.063,0.095-0.119,0.195-0.178,0.294
	c-0.075,0.125-0.152,0.249-0.221,0.379c-0.04,0.076-0.074,0.156-0.113,0.235c-0.076,0.158-0.152,0.316-0.218,0.48
	c-0.007,0.019-0.017,0.035-0.024,0.054c-0.052,0.13-0.268,0.683-0.594,1.557c-0.751-4.656-1.247-8.983-1.254-12.305l0,0l0,0
	C205.405,37.825,207.083,32.578,210.14,28.995z M213.708,96.368l-0.005-2.818c0-0.002,0-0.004,0-0.005
	c-0.016-8.417,3.568-20.76,6.176-28.379c38.122,0.745,66.812,9.941,77.409,13.871l0.009,4.95c0,0.026,0,0.052,0,0.078l0.026,13.715
	c0.052,27.399-19.1,50.583-41.822,50.625c-0.021,0-0.039,0-0.06,0c-10.738,0-21.045-5.457-29.027-15.37
	C218.364,123.037,213.732,109.672,213.708,96.368z M182.072,187.235l28.212-7.384l37.476,22.39l0.039,20.922l-80.717,0.16
	c-0.002,0-0.005,0-0.008,0c-0.988,0-1.908-0.308-2.524-0.845c-0.156-0.136-0.52-0.492-0.52-0.855l-0.018-8.929
	C163.996,202.6,170.193,190.626,182.072,187.235z"/>
<path d="M184.622,445.16c-0.048-0.013-0.095-0.026-0.143-0.038l-30.829-7.945c-2.965-0.865-5.273-2.485-5.504-3.213l-0.054-17.052
	c0.065-0.078,0.134-0.15,0.199-0.228c10.462-12.552,16.206-28.804,16.174-45.761l-0.024-12.555
	c10.463-34.231,3.017-63.861-0.793-72.474c-0.011-0.026-0.027-0.051-0.039-0.076c-0.069-0.153-0.147-0.301-0.225-0.448
	c-0.044-0.084-0.088-0.169-0.135-0.251c-0.075-0.129-0.158-0.253-0.241-0.376c-0.062-0.094-0.122-0.189-0.188-0.279
	c-0.072-0.099-0.15-0.193-0.227-0.287c-0.085-0.105-0.168-0.213-0.258-0.313c-0.066-0.073-0.137-0.143-0.206-0.214
	c-0.107-0.111-0.214-0.222-0.327-0.326c-0.066-0.061-0.136-0.116-0.205-0.174c-0.12-0.103-0.24-0.207-0.366-0.302
	c-0.081-0.061-0.166-0.116-0.249-0.174c-0.118-0.082-0.235-0.165-0.357-0.241c-0.109-0.067-0.221-0.126-0.333-0.187
	c-0.102-0.056-0.203-0.116-0.307-0.167c-0.138-0.068-0.281-0.127-0.423-0.187c-0.084-0.035-0.165-0.074-0.25-0.106
	c-0.156-0.06-0.316-0.109-0.476-0.158c-0.076-0.024-0.153-0.051-0.23-0.072c-0.155-0.042-0.313-0.075-0.472-0.107
	c-0.089-0.019-0.177-0.041-0.267-0.056c-0.138-0.024-0.279-0.038-0.419-0.055c-0.117-0.013-0.233-0.029-0.349-0.038
	c-0.114-0.007-0.229-0.008-0.344-0.011c-0.147-0.003-0.294-0.007-0.44-0.003c-0.094,0.003-0.189,0.012-0.283,0.019
	c-0.167,0.011-0.335,0.025-0.502,0.047c-0.028,0.004-0.055,0.004-0.083,0.008c-8.064,1.168-17.832-1.152-28.176-3.608
	c-18.137-4.307-38.6-9.155-56.4,3.811c-8.273,0.687-15.614,4.365-20.886,10.545c-5.456,6.394-8.451,15.224-8.432,24.865l0,0l0,0l0,0
	l0,0c0.027,14.358,6.778,40.085,8.278,45.625l0.008,4.134c0,0.004,0,0.009,0,0.014c0,0.001,0,0.003,0,0.004l0.005,2.819
	c0.031,16.768,5.912,33.665,16.135,46.36c0.003,0.003,0.006,0.007,0.01,0.011l0.012,18.218c-0.23,0.706-2.532,2.335-5.494,3.211
	l-30.799,8.061c-0.048,0.012-0.095,0.025-0.143,0.039c-19.351,5.462-29.445,24.471-29.414,40.426l0.017,8.93
	c0.019,9.477,8.334,17.173,18.547,17.173c0.012,0,0.026,0,0.038,0l88.271-0.176c0.06,0.001,0.119,0.009,0.18,0.009
	c0.005,0,0.01,0,0.015,0c0.063,0,0.125-0.008,0.188-0.01l88.279-0.176c10.229-0.02,18.537-7.754,18.52-17.243l-0.017-8.93
	C214.159,469.518,203.993,450.547,184.622,445.16z M107.159,461.992l-29.483-17.614c2.329-2.773,3.834-6.179,3.827-10.251
	l-0.003-4.395c7.865,4.798,16.562,7.348,25.579,7.348c0.029,0,0.061,0,0.09,0c8.985-0.017,17.64-2.447,25.46-7.007l0.012,3.93
	c0.008,4.19,1.606,7.673,4.058,10.478L107.159,461.992z M57.055,316.942L57.055,316.942L57.055,316.942
	c-0.011-5.944,1.666-11.192,4.723-14.775c2.954-3.462,6.958-5.223,11.902-5.232c0.059,0,0.117-0.007,0.176-0.009
	c0.193-0.005,0.388-0.011,0.581-0.03c0.101-0.01,0.198-0.029,0.299-0.042c0.152-0.022,0.303-0.04,0.454-0.07
	c0.116-0.023,0.227-0.055,0.34-0.083c0.132-0.033,0.264-0.063,0.395-0.102c0.12-0.036,0.237-0.082,0.353-0.124
	c0.12-0.043,0.241-0.083,0.36-0.132c0.124-0.052,0.243-0.112,0.364-0.169c0.107-0.052,0.215-0.099,0.321-0.155
	c0.134-0.072,0.262-0.153,0.393-0.234c0.087-0.053,0.175-0.101,0.259-0.158c0.162-0.109,0.317-0.227,0.47-0.347
	c0.045-0.035,0.093-0.065,0.138-0.102c12.344-10.125,28.259-6.346,45.11-2.346c9.005,2.138,18.253,4.334,27.199,4.334
	c0.096,0,0.191-0.004,0.287-0.004c2.245,8.046,4.534,22.669,2.103,40.106c-13.013-4.77-44.655-14.482-86.67-14.482
	c-0.171,0-0.341,0-0.512,0c-0.02,0-0.038,0.003-0.058,0.003c-0.176,0.002-0.35,0.013-0.525,0.027
	c-0.088,0.007-0.176,0.01-0.262,0.02c-0.142,0.017-0.282,0.042-0.423,0.065c-0.118,0.02-0.236,0.035-0.351,0.06
	c-0.093,0.021-0.183,0.048-0.275,0.071c-0.157,0.04-0.315,0.079-0.468,0.128c-0.044,0.014-0.088,0.033-0.133,0.049
	c-0.193,0.066-0.385,0.135-0.572,0.216c-0.021,0.009-0.04,0.021-0.061,0.029c-0.206,0.091-0.408,0.189-0.604,0.297
	c-0.049,0.027-0.093,0.059-0.142,0.086c-0.163,0.095-0.327,0.191-0.483,0.298c-0.115,0.079-0.223,0.166-0.334,0.251
	c-0.084,0.064-0.171,0.123-0.251,0.19c-0.145,0.12-0.282,0.251-0.419,0.381c-0.041,0.04-0.087,0.076-0.127,0.118
	c-0.127,0.128-0.245,0.265-0.364,0.402c-0.045,0.053-0.095,0.102-0.14,0.157c-0.093,0.115-0.179,0.237-0.266,0.358
	c-0.063,0.086-0.129,0.171-0.188,0.259c-0.062,0.093-0.117,0.193-0.176,0.289c-0.076,0.127-0.154,0.252-0.223,0.383
	c-0.039,0.075-0.073,0.155-0.112,0.233c-0.076,0.159-0.153,0.318-0.219,0.482c-0.007,0.019-0.017,0.035-0.024,0.054
	c-0.052,0.13-0.268,0.683-0.594,1.557C57.558,324.592,57.062,320.266,57.055,316.942z M65.347,369.54l-0.005-2.836
	c-0.012-8.415,3.569-20.752,6.176-28.366c38.123,0.745,66.812,9.942,77.409,13.872l0.009,4.949c0,0.026,0,0.052,0,0.078
	l0.026,13.715c0.052,27.399-19.1,50.583-41.822,50.625c-0.021,0-0.039,0-0.06,0c-10.738,0-21.045-5.457-29.027-15.371
	C70.004,396.209,65.372,382.845,65.347,369.54z M18.723,496.497c-0.003,0-0.005,0-0.009,0c-1.886,0-3.043-1.101-3.044-1.701
	l-0.017-8.93c-0.02-10.095,6.178-22.069,18.059-25.458l28.212-7.384l37.475,22.39l0.039,20.922L18.723,496.497z M195.656,496.146
	l-80.715,0.16l-0.039-20.884l37.889-22.458l27.743,7.15c11.892,3.346,18.133,15.295,18.153,25.389l0.017,8.929
	C198.705,495.035,197.548,496.141,195.656,496.146z"/>
<path d="M511.826,484.915c-0.03-15.956-10.196-34.926-29.567-40.314c-0.048-0.013-0.095-0.025-0.143-0.038l-30.829-7.945
	c-2.966-0.866-5.273-2.487-5.504-3.214l-0.054-17.052c0.065-0.078,0.134-0.15,0.199-0.227
	c10.462-12.552,16.206-28.804,16.174-45.761l-0.024-12.555c10.463-34.232,3.017-63.861-0.793-72.474
	c-0.011-0.027-0.027-0.051-0.039-0.078c-0.07-0.154-0.148-0.303-0.227-0.452c-0.043-0.082-0.086-0.164-0.131-0.244
	c-0.079-0.133-0.163-0.261-0.249-0.39c-0.059-0.089-0.116-0.179-0.178-0.265c-0.078-0.106-0.161-0.207-0.244-0.308
	c-0.08-0.098-0.156-0.197-0.24-0.29c-0.075-0.085-0.156-0.162-0.235-0.243c-0.097-0.1-0.193-0.201-0.295-0.295
	c-0.081-0.074-0.166-0.142-0.249-0.213c-0.105-0.089-0.21-0.18-0.319-0.264c-0.099-0.075-0.203-0.143-0.305-0.213
	c-0.1-0.068-0.197-0.14-0.301-0.203c-0.128-0.08-0.261-0.15-0.394-0.221c-0.082-0.043-0.162-0.092-0.245-0.133
	c-0.157-0.079-0.319-0.147-0.482-0.214c-0.064-0.026-0.126-0.057-0.191-0.082c-0.171-0.065-0.346-0.121-0.522-0.174
	c-0.063-0.02-0.124-0.041-0.186-0.059c-0.165-0.046-0.334-0.081-0.503-0.115c-0.08-0.017-0.158-0.036-0.238-0.05
	c-0.145-0.025-0.291-0.04-0.438-0.057c-0.111-0.013-0.22-0.028-0.331-0.036c-0.118-0.008-0.237-0.008-0.354-0.011
	c-0.144-0.004-0.287-0.008-0.432-0.003c-0.096,0.003-0.192,0.012-0.289,0.02c-0.165,0.011-0.331,0.024-0.496,0.047
	c-0.028,0.004-0.057,0.004-0.085,0.008c-8.065,1.166-17.833-1.152-28.176-3.608c-18.137-4.306-38.599-9.155-56.4,3.811
	c-8.273,0.687-15.614,4.365-20.886,10.544c-5.456,6.395-8.451,15.225-8.432,24.865l0,0l0,0l0,0l0,0
	c0.027,14.358,6.778,40.086,8.278,45.625l0.008,4.134c0,0.004,0,0.009,0,0.014c0,0.001,0,0.003,0,0.004l0.005,2.819
	c0.031,16.767,5.912,33.665,16.135,46.36c0.003,0.004,0.006,0.007,0.01,0.011l0.012,18.219c-0.23,0.705-2.532,2.335-5.494,3.211
	l-30.799,8.061c-0.048,0.012-0.095,0.025-0.143,0.038c-19.352,5.461-29.446,24.47-29.415,40.425l0.017,8.93
	c0.019,9.477,8.334,17.174,18.547,17.173c0.012,0,0.026,0,0.039,0l88.269-0.176c0.061,0.001,0.121,0.009,0.182,0.009
	c0.005,0,0.01,0,0.016,0c0.064,0,0.126-0.008,0.19-0.01l88.276-0.176c10.229-0.02,18.537-7.754,18.52-17.243L511.826,484.915z
	 M404.795,461.432l-29.482-17.613c2.329-2.773,3.834-6.179,3.827-10.251l-0.003-4.395c7.865,4.798,16.561,7.348,25.579,7.347
	c0.029,0,0.061,0,0.09,0c8.985-0.017,17.64-2.446,25.46-7.007l0.012,3.93c0.008,4.19,1.606,7.673,4.058,10.479L404.795,461.432z
	 M354.693,316.383L354.693,316.383L354.693,316.383c-0.011-5.944,1.666-11.192,4.723-14.774c2.954-3.463,6.958-5.223,11.902-5.232
	c0.059,0,0.117-0.008,0.176-0.009c0.193-0.004,0.388-0.011,0.581-0.03c0.101-0.01,0.198-0.029,0.299-0.042
	c0.152-0.021,0.303-0.04,0.454-0.07c0.116-0.023,0.227-0.055,0.34-0.083c0.132-0.032,0.264-0.063,0.395-0.102
	c0.12-0.037,0.237-0.082,0.353-0.124c0.12-0.043,0.241-0.084,0.36-0.132c0.124-0.052,0.243-0.111,0.364-0.169
	c0.107-0.051,0.215-0.098,0.321-0.155c0.134-0.072,0.262-0.153,0.393-0.234c0.087-0.053,0.175-0.101,0.259-0.158
	c0.162-0.109,0.317-0.227,0.47-0.347c0.045-0.036,0.093-0.065,0.138-0.102c12.345-10.126,28.26-6.346,45.11-2.346
	c9.005,2.137,18.253,4.333,27.199,4.333c0.096,0,0.191-0.004,0.287-0.004c2.245,8.046,4.533,22.669,2.103,40.106
	c-13.013-4.77-44.655-14.482-86.671-14.482c-0.171,0-0.341,0-0.512,0.001c-0.019,0-0.036,0.002-0.054,0.002
	c-0.184,0.001-0.366,0.014-0.548,0.029c-0.08,0.006-0.16,0.008-0.24,0.018c-0.153,0.018-0.303,0.044-0.455,0.07
	c-0.106,0.019-0.214,0.032-0.318,0.055c-0.107,0.023-0.213,0.055-0.319,0.083c-0.142,0.037-0.285,0.07-0.424,0.116
	c-0.065,0.021-0.128,0.048-0.193,0.071c-0.173,0.061-0.344,0.121-0.511,0.193c-0.05,0.022-0.096,0.048-0.145,0.07
	c-0.176,0.081-0.35,0.162-0.52,0.255c-0.081,0.044-0.157,0.097-0.236,0.145c-0.13,0.079-0.264,0.154-0.389,0.24
	c-0.138,0.094-0.269,0.197-0.401,0.301c-0.061,0.048-0.126,0.091-0.185,0.141c-0.157,0.13-0.307,0.271-0.455,0.414
	c-0.03,0.029-0.062,0.055-0.091,0.085c-0.134,0.134-0.259,0.279-0.384,0.425c-0.039,0.046-0.082,0.088-0.119,0.134
	c-0.096,0.118-0.184,0.244-0.274,0.368c-0.061,0.084-0.124,0.164-0.182,0.25c-0.063,0.094-0.119,0.194-0.177,0.292
	c-0.075,0.125-0.153,0.25-0.221,0.38c-0.04,0.075-0.074,0.156-0.112,0.234c-0.076,0.158-0.152,0.317-0.219,0.481
	c-0.007,0.019-0.017,0.035-0.024,0.053c-0.052,0.13-0.267,0.682-0.593,1.555C355.195,324.029,354.699,319.703,354.693,316.383z
	 M362.984,368.981l-0.005-2.837c-0.012-8.415,3.569-20.751,6.176-28.366c38.122,0.745,66.812,9.942,77.409,13.871l0.009,4.95
	c0,0.026,0,0.052,0,0.078l0.026,13.715c0.052,27.399-19.1,50.583-41.822,50.625c-0.021,0-0.039,0-0.06,0
	c-10.738,0-21.045-5.457-29.027-15.37C367.64,395.65,363.008,382.285,362.984,368.981z M316.359,495.938c-0.003,0-0.006,0-0.009,0
	c-1.886,0-3.043-1.101-3.044-1.701l-0.017-8.929c-0.02-10.095,6.178-22.069,18.059-25.458l28.212-7.384l37.475,22.389l0.039,20.922
	L316.359,495.938z M493.292,495.585l-80.715,0.16l-0.039-20.884l37.89-22.458l27.743,7.151
	c11.892,3.346,18.133,15.295,18.153,25.389l0.017,8.929C496.342,494.474,495.186,495.582,493.292,495.585z"/>
</svg>