<!DOCTYPE svg PUBLIC "-//W3C//DTD SVG 1.1//EN" "http://www.w3.org/Graphics/SVG/1.1/DTD/svg11.dtd">
<!-- Uploaded to: SVG Repo, www.svgrepo.com, Transformed by: SVG Repo Mixer Tools -->
<svg fill="#AF8260" version="1.1" id="Layer_1" xmlns="http://www.w3.org/2000/svg" xmlns:xlink="http://www.w3.org/1999/xlink" viewBox="0 0 24 24" xml:space="preserve" width="800px" height="800px">
<g id="SVGRepo_bgCarrier" stroke-width="0"/>
<g id="SVGRepo_tracerCarrier" stroke-linecap="round" stroke-linejoin="round"/>
<g id="SVGRepo_iconCarrier"> <style type="text/css"> .st0{fill:none;} </style> <path d="M5,2v2H4C2.9,4,2,4.9,2,6v11c0,1.1,0.9,2,2,2h6.8c1.8-1.8,0,0,2-2H4V8h12v5.9c1.6-1.6,0.2-0.2,2-2V6c0-1.1-0.9-2-2-2h-1V2 h-2v2H7V2H5z M10,9.2l-0.8,2L7,11.4l1.6,1.4l-0.5,2.1l1.8-1.1l1.8,1.1l-0.5-2.1l1.6-1.4l-2.2-0.2L10,9.2z M20.5,12 c-0.1,0-0.3,0.1-0.4,0.2L19.3,13l2,2l0.8-0.8c0.2-0.2,0.2-0.6,0-0.7l-1.3-1.3C20.8,12,20.6,12,20.5,12z M18.8,13.5L12.3,20v2h2 l6.5-6.5L18.8,13.5"/> <rect class="st0" width="24" height="24"/> </g>
</svg>